<svg width="32" height="32" viewBox="0 0 32 32" fill="none" xmlns="http://www.w3.org/2000/svg">
<g filter="url(#filter0_d_2113_36904)">
<path d="M6.18908 19.9514L9.33449 14.11L18.8461 4.59831C19.1404 4.30407 19.6174 4.30407 19.9117 4.59831L27.2561 11.9427C27.5479 12.2345 27.5507 12.7067 27.2624 13.0019L17.8548 22.6364L12.0173 25.7797C11.7244 25.9374 11.3626 25.8843 11.1273 25.649L6.3197 20.8414C6.08443 20.6061 6.03133 20.2444 6.18908 19.9514Z" fill="black" stroke="white" stroke-width="1.5069"/>
<path d="M5.23938 24.8487L6.82977 21.3499L10.6199 25.14L7.12103 26.7304C6.58179 26.9755 5.94706 26.8604 5.52821 26.4416C5.10937 26.0227 4.99427 25.388 5.23938 24.8487Z" fill="black" stroke="white" stroke-width="1.5069"/>
<path d="M9.25391 14.1882L17.7782 22.7125L16.7127 23.7781L8.18837 15.2538L9.25391 14.1882Z" fill="white"/>
</g>
<defs>
<filter id="filter0_d_2113_36904" x="-3" y="-2" width="38" height="38" filterUnits="userSpaceOnUse" color-interpolation-filters="sRGB">
<feFlood flood-opacity="0" result="BackgroundImageFix"/>
<feColorMatrix in="SourceAlpha" type="matrix" values="0 0 0 0 0 0 0 0 0 0 0 0 0 0 0 0 0 0 127 0" result="hardAlpha"/>
<feOffset dy="1"/>
<feGaussianBlur stdDeviation="1.5"/>
<feColorMatrix type="matrix" values="0 0 0 0 0 0 0 0 0 0 0 0 0 0 0 0 0 0 0.35 0"/>
<feBlend mode="normal" in2="BackgroundImageFix" result="effect1_dropShadow_2113_36904"/>
<feBlend mode="normal" in="SourceGraphic" in2="effect1_dropShadow_2113_36904" result="shape"/>
</filter>
</defs>
</svg>
