<svg width="32" height="32" viewBox="0 0 32 32" fill="none" xmlns="http://www.w3.org/2000/svg">
<g filter="url(#filter0_d_1738_9536)">
<mask id="path-1-outside-1_1738_9536" maskUnits="userSpaceOnUse" x="6.375" y="7" width="17" height="18" fill="black">
<rect fill="white" x="6.375" y="7" width="17" height="18"/>
<path fill-rule="evenodd" clip-rule="evenodd" d="M13.9427 9.02832C13.9427 8.46041 14.4031 8.00002 14.971 8C14.971 8 14.971 8 14.9711 8C15.539 8.00002 15.9993 8.46041 15.9993 9.02832V9.87226L15.9993 9.88213V15.9998H16.9993V10.9031H16.9993V9.87515C17.0031 9.32605 17.4494 8.88209 17.9994 8.88213C18.5516 8.88216 18.9993 9.32987 18.9993 9.88213V15.9999H19.9993V15.8547H19.9994V12.9998C19.9994 12.4534 20.4376 12.0094 20.9817 12H21.0169C21.5611 12.0094 21.9993 12.4534 21.9993 12.9998V18.3116C21.9884 21.4549 19.4369 23.9997 16.291 23.9997H16.0063C14.9554 23.9997 13.9385 23.6703 13.0936 23.0687L7.65712 17.6323C7.3182 17.2934 7.28005 16.7568 7.56761 16.3733C7.89875 15.9318 8.5325 15.8582 8.95597 16.2122L10.1035 17.1715V17.1719L10.1161 17.182L10.2216 17.2702L10.2231 17.2685L10.9997 17.8962V17H10.9993V10.9075C10.9993 10.3718 11.4356 9.93587 11.9731 9.93587C12.5083 9.93587 12.9426 10.3699 12.9425 10.9031H12.9427V15.9999H13.9427V9.02832Z"/>
</mask>
<path fill-rule="evenodd" clip-rule="evenodd" d="M13.9427 9.02832C13.9427 8.46041 14.4031 8.00002 14.971 8C14.971 8 14.971 8 14.9711 8C15.539 8.00002 15.9993 8.46041 15.9993 9.02832V9.87226L15.9993 9.88213V15.9998H16.9993V10.9031H16.9993V9.87515C17.0031 9.32605 17.4494 8.88209 17.9994 8.88213C18.5516 8.88216 18.9993 9.32987 18.9993 9.88213V15.9999H19.9993V15.8547H19.9994V12.9998C19.9994 12.4534 20.4376 12.0094 20.9817 12H21.0169C21.5611 12.0094 21.9993 12.4534 21.9993 12.9998V18.3116C21.9884 21.4549 19.4369 23.9997 16.291 23.9997H16.0063C14.9554 23.9997 13.9385 23.6703 13.0936 23.0687L7.65712 17.6323C7.3182 17.2934 7.28005 16.7568 7.56761 16.3733C7.89875 15.9318 8.5325 15.8582 8.95597 16.2122L10.1035 17.1715V17.1719L10.1161 17.182L10.2216 17.2702L10.2231 17.2685L10.9997 17.8962V17H10.9993V10.9075C10.9993 10.3718 11.4356 9.93587 11.9731 9.93587C12.5083 9.93587 12.9426 10.3699 12.9425 10.9031H12.9427V15.9999H13.9427V9.02832Z" fill="white"/>
<path d="M14.971 8V7H14.9709L14.971 8ZM14.9711 8L14.9711 7H14.9711V8ZM15.9993 9.87226L16.9993 9.87467V9.87226H15.9993ZM15.9993 9.88213L14.9993 9.87971V9.88213H15.9993ZM15.9993 15.9998H14.9993V16.9998H15.9993V15.9998ZM16.9993 15.9998V16.9998H17.9993V15.9998H16.9993ZM16.9993 10.9031V9.90312H15.9993V10.9031H16.9993ZM16.9993 10.9031V11.9031H17.9993V10.9031H16.9993ZM16.9993 9.87515L15.9993 9.86832V9.87515H16.9993ZM17.9994 8.88213L17.9993 9.88213L17.9994 8.88213ZM18.9993 15.9999H17.9993V16.9999H18.9993V15.9999ZM19.9993 15.9999V16.9999H20.9993V15.9999H19.9993ZM19.9993 15.8547V14.8547H18.9993V15.8547H19.9993ZM19.9994 15.8547V16.8547H20.9994V15.8547H19.9994ZM20.9817 12V11H20.9731L20.9645 11.0001L20.9817 12ZM21.0169 12L21.0342 11.0001L21.0256 11H21.0169V12ZM21.9993 18.3116L22.9993 18.3151V18.3116H21.9993ZM13.0936 23.0687L12.3865 23.7758L12.4455 23.8349L12.5136 23.8833L13.0936 23.0687ZM7.65712 17.6323L8.36423 16.9252H8.36423L7.65712 17.6323ZM7.56761 16.3733L8.36765 16.9733H8.36765L7.56761 16.3733ZM8.95597 16.2122L8.3146 16.9794H8.3146L8.95597 16.2122ZM10.1035 17.1715H11.1035V16.7041L10.7449 16.4043L10.1035 17.1715ZM10.1035 17.1719H9.10354V17.6494L9.47495 17.9496L10.1035 17.1719ZM10.1161 17.182L10.7574 16.4148L10.7511 16.4095L10.7447 16.4043L10.1161 17.182ZM10.2216 17.2702L9.58024 18.0375L10.3475 18.6788L10.9888 17.9116L10.2216 17.2702ZM10.2231 17.2685L10.8517 16.4907L10.0867 15.8725L9.45585 16.6271L10.2231 17.2685ZM10.9997 17.8962L10.3712 18.6739L11.9997 19.9902V17.8962H10.9997ZM10.9997 17H11.9997V16H10.9997V17ZM10.9993 17H9.99933V18H10.9993V17ZM12.9425 10.9031L11.9425 10.9031L11.9425 11.9031H12.9425V10.9031ZM12.9427 10.9031H13.9427V9.90309H12.9427V10.9031ZM12.9427 15.9999H11.9427V16.9999H12.9427V15.9999ZM13.9427 15.9999V16.9999H14.9427V15.9999H13.9427ZM14.9709 7C13.8508 7.00004 12.9427 7.90814 12.9427 9.02832H14.9427C14.9427 9.02257 14.9437 9.0196 14.9445 9.0176C14.9456 9.01494 14.9477 9.01158 14.951 9.0083C14.9543 9.00501 14.9576 9.00294 14.9603 9.00182C14.9623 9.00097 14.9653 9 14.971 9L14.9709 7ZM14.9711 7H14.9711H14.9711H14.9711H14.9711C14.9711 7 14.9711 7 14.9711 7C14.9711 7 14.9711 7 14.9711 7C14.9711 7 14.9711 7 14.9711 7C14.9711 7 14.9711 7 14.9711 7C14.9711 7 14.9711 7 14.9711 7C14.9711 7 14.9711 7 14.9711 7H14.9711H14.9711H14.9711C14.9711 7 14.9711 7 14.9711 7C14.9711 7 14.9711 7 14.9711 7C14.9711 7 14.9711 7 14.9711 7C14.9711 7 14.9711 7 14.9711 7C14.9711 7 14.9711 7 14.9711 7C14.9711 7 14.9711 7 14.9711 7C14.9711 7 14.9711 7 14.9711 7H14.9711H14.9711H14.9711H14.9711C14.9711 7 14.9711 7 14.9711 7C14.9711 7 14.9711 7 14.9711 7C14.9711 7 14.9711 7 14.9711 7C14.9711 7 14.9711 7 14.9711 7C14.9711 7 14.9711 7 14.9711 7C14.9711 7 14.9711 7 14.9711 7C14.9711 7 14.9711 7 14.9711 7H14.9711H14.9711H14.9711C14.9711 7 14.9711 7 14.9711 7C14.9711 7 14.9711 7 14.9711 7C14.9711 7 14.9711 7 14.9711 7C14.9711 7 14.9711 7 14.9711 7C14.9711 7 14.9711 7 14.9711 7C14.9711 7 14.9711 7 14.9711 7C14.9711 7 14.9711 7 14.9711 7H14.9711H14.971H14.971H14.971C14.971 7 14.971 7 14.971 7C14.971 7 14.971 7 14.971 7C14.971 7 14.971 7 14.971 7C14.971 7 14.971 7 14.971 7C14.971 7 14.971 7 14.971 7C14.971 7 14.971 7 14.971 7C14.971 7 14.971 7 14.971 7C14.971 7 14.971 7 14.971 7H14.971H14.971H14.971H14.971C14.971 7 14.971 7 14.971 7C14.971 7 14.971 7 14.971 7C14.971 7 14.971 7 14.971 7C14.971 7 14.971 7 14.971 7C14.971 7 14.971 7 14.971 7C14.971 7 14.971 7 14.971 7C14.971 7 14.971 7 14.971 7C14.971 7 14.971 7 14.971 7H14.971H14.971H14.971C14.971 7 14.971 7 14.971 7C14.971 7 14.971 7 14.971 7C14.971 7 14.971 7 14.971 7C14.971 7 14.971 7 14.971 7C14.971 7 14.971 7 14.971 7C14.971 7 14.971 7 14.971 7C14.971 7 14.971 7 14.971 7C14.971 7 14.971 7 14.971 7H14.971H14.971H14.971H14.971H14.971C14.971 7 14.971 7 14.971 7C14.971 7 14.971 7 14.971 7C14.971 7 14.971 7 14.971 7C14.971 7 14.971 7 14.971 7C14.971 7 14.971 7 14.971 7C14.971 7 14.971 7 14.971 7C14.971 7 14.971 7 14.971 7C14.971 7 14.971 7 14.971 7H14.971H14.971H14.971H14.971C14.971 7 14.971 7 14.971 7C14.971 7 14.971 7 14.971 7C14.971 7 14.971 7 14.971 7C14.971 7 14.971 7 14.971 7C14.971 7 14.971 7 14.971 7C14.971 7 14.971 7 14.971 7C14.971 7 14.971 7 14.971 7C14.971 7 14.971 7 14.971 7H14.971H14.971H14.971H14.971C14.971 7 14.971 7 14.971 7C14.971 7 14.971 7 14.971 7C14.971 7 14.971 7 14.971 7C14.971 7 14.971 7 14.971 7C14.971 7 14.971 7 14.971 7C14.971 7 14.971 7 14.971 7C14.971 7 14.971 7 14.971 7C14.971 7 14.971 7 14.971 7H14.971H14.971H14.971H14.971C14.971 7 14.971 7 14.971 7C14.971 7 14.971 7 14.971 7C14.971 7 14.971 7 14.971 7C14.971 7 14.971 7 14.971 7C14.971 7 14.971 7 14.971 7C14.971 7 14.971 7 14.971 7C14.971 7 14.971 7 14.971 7H14.971H14.971H14.971H14.971C14.971 7 14.971 7 14.971 7C14.971 7 14.971 7 14.971 7C14.971 7 14.971 7 14.971 7C14.971 7 14.971 7 14.971 7C14.971 7 14.971 7 14.971 7C14.971 7 14.971 7 14.971 7C14.971 7 14.971 7 14.971 7C14.971 7 14.971 7 14.971 7H14.971H14.971H14.971C14.971 7 14.971 7 14.971 7C14.971 7 14.971 7 14.971 7C14.971 7 14.971 7 14.971 7C14.971 7 14.971 7 14.971 7C14.971 7 14.971 7 14.971 7C14.971 7 14.971 7 14.971 7C14.971 7 14.971 7 14.971 7C14.971 7 14.971 7 14.971 7H14.971H14.971H14.971C14.971 7 14.971 7 14.971 7C14.971 7 14.971 7 14.971 7C14.971 7 14.971 7 14.971 7C14.971 7 14.971 7 14.971 7C14.971 7 14.971 7 14.971 7C14.971 7 14.971 7 14.971 7C14.971 7 14.971 7 14.971 7H14.971H14.971H14.971C14.971 7 14.971 7 14.971 7C14.971 7 14.971 7 14.971 7C14.971 7 14.971 7 14.971 7C14.971 7 14.971 7 14.971 7C14.971 7 14.971 7 14.971 7C14.971 7 14.971 7 14.971 7C14.971 7 14.971 7 14.971 7H14.971H14.971H14.971C14.971 7 14.971 7 14.971 7C14.971 7 14.971 7 14.971 7C14.971 7 14.971 7 14.971 7C14.971 7 14.971 7 14.971 7C14.971 7 14.971 7 14.971 7C14.971 7 14.971 7 14.971 7V9C14.971 9 14.971 9 14.971 9C14.971 9 14.971 9 14.971 9C14.971 9 14.971 9 14.971 9C14.971 9 14.971 9 14.971 9C14.971 9 14.971 9 14.971 9C14.971 9 14.971 9 14.971 9H14.971H14.971H14.971C14.971 9 14.971 9 14.971 9C14.971 9 14.971 9 14.971 9C14.971 9 14.971 9 14.971 9C14.971 9 14.971 9 14.971 9C14.971 9 14.971 9 14.971 9C14.971 9 14.971 9 14.971 9C14.971 9 14.971 9 14.971 9H14.971H14.971H14.971C14.971 9 14.971 9 14.971 9C14.971 9 14.971 9 14.971 9C14.971 9 14.971 9 14.971 9C14.971 9 14.971 9 14.971 9C14.971 9 14.971 9 14.971 9C14.971 9 14.971 9 14.971 9C14.971 9 14.971 9 14.971 9H14.971H14.971H14.971C14.971 9 14.971 9 14.971 9C14.971 9 14.971 9 14.971 9C14.971 9 14.971 9 14.971 9C14.971 9 14.971 9 14.971 9C14.971 9 14.971 9 14.971 9C14.971 9 14.971 9 14.971 9C14.971 9 14.971 9 14.971 9C14.971 9 14.971 9 14.971 9H14.971H14.971H14.971C14.971 9 14.971 9 14.971 9C14.971 9 14.971 9 14.971 9C14.971 9 14.971 9 14.971 9C14.971 9 14.971 9 14.971 9C14.971 9 14.971 9 14.971 9C14.971 9 14.971 9 14.971 9C14.971 9 14.971 9 14.971 9C14.971 9 14.971 9 14.971 9H14.971H14.971H14.971H14.971C14.971 9 14.971 9 14.971 9C14.971 9 14.971 9 14.971 9C14.971 9 14.971 9 14.971 9C14.971 9 14.971 9 14.971 9C14.971 9 14.971 9 14.971 9C14.971 9 14.971 9 14.971 9C14.971 9 14.971 9 14.971 9H14.971H14.971H14.971H14.971C14.971 9 14.971 9 14.971 9C14.971 9 14.971 9 14.971 9C14.971 9 14.971 9 14.971 9C14.971 9 14.971 9 14.971 9C14.971 9 14.971 9 14.971 9C14.971 9 14.971 9 14.971 9C14.971 9 14.971 9 14.971 9C14.971 9 14.971 9 14.971 9H14.971H14.971H14.971H14.971C14.971 9 14.971 9 14.971 9C14.971 9 14.971 9 14.971 9C14.971 9 14.971 9 14.971 9C14.971 9 14.971 9 14.971 9C14.971 9 14.971 9 14.971 9C14.971 9 14.971 9 14.971 9C14.971 9 14.971 9 14.971 9C14.971 9 14.971 9 14.971 9H14.971H14.971H14.971H14.971C14.971 9 14.971 9 14.971 9C14.971 9 14.971 9 14.971 9C14.971 9 14.971 9 14.971 9C14.971 9 14.971 9 14.971 9C14.971 9 14.971 9 14.971 9C14.971 9 14.971 9 14.971 9C14.971 9 14.971 9 14.971 9C14.971 9 14.971 9 14.971 9H14.971H14.971H14.971H14.971H14.971C14.971 9 14.971 9 14.971 9C14.971 9 14.971 9 14.971 9C14.971 9 14.971 9 14.971 9C14.971 9 14.971 9 14.971 9C14.971 9 14.971 9 14.971 9C14.971 9 14.971 9 14.971 9C14.971 9 14.971 9 14.971 9C14.971 9 14.971 9 14.971 9H14.971H14.971H14.971C14.971 9 14.971 9 14.971 9C14.971 9 14.971 9 14.971 9C14.971 9 14.971 9 14.971 9C14.971 9 14.971 9 14.971 9C14.971 9 14.971 9 14.971 9C14.971 9 14.971 9 14.971 9C14.971 9 14.971 9 14.971 9C14.971 9 14.971 9 14.971 9H14.971H14.971H14.971H14.971C14.971 9 14.971 9 14.971 9C14.971 9 14.971 9 14.971 9C14.971 9 14.971 9 14.971 9C14.971 9 14.971 9 14.971 9C14.971 9 14.971 9 14.971 9C14.971 9 14.971 9 14.971 9C14.971 9 14.971 9 14.971 9C14.971 9 14.971 9 14.971 9H14.971H14.971H14.9711H14.9711C14.9711 9 14.9711 9 14.9711 9C14.9711 9 14.9711 9 14.9711 9C14.9711 9 14.9711 9 14.9711 9C14.9711 9 14.9711 9 14.9711 9C14.9711 9 14.9711 9 14.9711 9C14.9711 9 14.9711 9 14.9711 9C14.9711 9 14.9711 9 14.9711 9H14.9711H14.9711H14.9711C14.9711 9 14.9711 9 14.9711 9C14.9711 9 14.9711 9 14.9711 9C14.9711 9 14.9711 9 14.9711 9C14.9711 9 14.9711 9 14.9711 9C14.9711 9 14.9711 9 14.9711 9C14.9711 9 14.9711 9 14.9711 9C14.9711 9 14.9711 9 14.9711 9H14.9711H14.9711H14.9711H14.9711C14.9711 9 14.9711 9 14.9711 9C14.9711 9 14.9711 9 14.9711 9C14.9711 9 14.9711 9 14.9711 9C14.9711 9 14.9711 9 14.9711 9C14.9711 9 14.9711 9 14.9711 9C14.9711 9 14.9711 9 14.9711 9C14.9711 9 14.9711 9 14.9711 9H14.9711H14.9711H14.9711C14.9711 9 14.9711 9 14.9711 9C14.9711 9 14.9711 9 14.9711 9C14.9711 9 14.9711 9 14.9711 9C14.9711 9 14.9711 9 14.9711 9C14.9711 9 14.9711 9 14.9711 9C14.9711 9 14.9711 9 14.9711 9H14.9711H14.9711H14.9711H14.9711V7ZM16.9993 9.02832C16.9993 7.90813 16.0913 7.00004 14.9711 7L14.971 9C14.9768 9 14.9797 9.00097 14.9817 9.00182C14.9844 9.00294 14.9878 9.00501 14.9911 9.0083C14.9943 9.01158 14.9964 9.01494 14.9975 9.0176C14.9984 9.0196 14.9993 9.02257 14.9993 9.02832H16.9993ZM16.9993 9.87226V9.02832H14.9993V9.87226H16.9993ZM16.9993 9.88454L16.9993 9.87467L14.9994 9.86984L14.9993 9.87971L16.9993 9.88454ZM16.9993 15.9998V9.88213H14.9993V15.9998H16.9993ZM16.9993 14.9998H15.9993V16.9998H16.9993V14.9998ZM15.9993 10.9031V15.9998H17.9993V10.9031H15.9993ZM16.9993 9.90312H16.9993V11.9031H16.9993V9.90312ZM15.9993 9.87515V10.9031H17.9993V9.87515H15.9993ZM17.9994 7.88213C16.8994 7.88206 16.0069 8.76997 15.9994 9.86832L17.9993 9.88198L17.9993 9.88213L17.9994 7.88213ZM19.9993 9.88213C19.9993 8.77761 19.104 7.8822 17.9994 7.88213L17.9993 9.88213V9.88213H19.9993ZM19.9993 15.9999V9.88213H17.9993V15.9999H19.9993ZM19.9993 14.9999H18.9993V16.9999H19.9993V14.9999ZM18.9993 15.8547V15.9999H20.9993V15.8547H18.9993ZM19.9994 14.8547H19.9993V16.8547H19.9994V14.8547ZM18.9994 12.9998V15.8547H20.9994V12.9998H18.9994ZM20.9645 11.0001C19.8758 11.0189 18.9994 11.9069 18.9994 12.9998H20.9994L20.999 12.9999L20.9645 11.0001ZM20.9817 13H21.0169V11H20.9817V13ZM22.9993 12.9998C22.9993 11.9069 22.1229 11.0189 21.0342 11.0001L20.9997 12.9999L20.9993 12.9998H22.9993ZM22.9993 18.3116V12.9998H20.9993V18.3116H22.9993ZM16.291 24.9997C19.988 24.9997 22.9865 22.0092 22.9993 18.3151L20.9993 18.3082C20.9903 20.9007 18.8858 22.9997 16.291 22.9997V24.9997ZM16.0063 24.9997H16.291V22.9997H16.0063V24.9997ZM12.5136 23.8833C13.5267 24.6047 14.7461 24.9997 16.0063 24.9997V22.9997C15.1647 22.9997 14.3503 22.7359 13.6736 22.2541L12.5136 23.8833ZM6.95002 18.3394L12.3865 23.7758L13.8007 22.3616L8.36423 16.9252L6.95002 18.3394ZM6.76757 15.7734C6.18146 16.555 6.25922 17.6486 6.95002 18.3394L8.36423 16.9252C8.37718 16.9381 8.37864 16.9586 8.36765 16.9733L6.76757 15.7734ZM9.59735 15.445C8.73422 14.7234 7.4425 14.8734 6.76757 15.7734L8.36765 16.9733C8.36579 16.9758 8.36154 16.9799 8.35569 16.9832C8.35058 16.9861 8.34607 16.9873 8.34245 16.9878C8.33883 16.9882 8.33416 16.988 8.32853 16.9864C8.32207 16.9845 8.31698 16.9814 8.3146 16.9794L9.59735 15.445ZM10.7449 16.4043L9.59735 15.445L8.3146 16.9794L9.46217 17.9388L10.7449 16.4043ZM11.1035 17.1719V17.1715H9.10354V17.1719H11.1035ZM10.7447 16.4043L10.7321 16.3941L9.47495 17.9496L9.48746 17.9597L10.7447 16.4043ZM10.863 16.503L10.7574 16.4148L9.47469 17.9492L9.58024 18.0375L10.863 16.503ZM9.45585 16.6271L9.45439 16.6289L10.9888 17.9116L10.9903 17.9099L9.45585 16.6271ZM11.6283 17.1185L10.8517 16.4907L9.59449 18.0462L10.3712 18.6739L11.6283 17.1185ZM9.99975 17V17.8962H11.9997V17H9.99975ZM10.9993 18H10.9997V16H10.9993V18ZM9.99933 10.9075V17H11.9993V10.9075H9.99933ZM11.9731 8.93587C10.8849 8.93587 9.99933 9.81791 9.99933 10.9075H11.9993C11.9993 10.9104 11.9985 10.9154 11.9965 10.9203C11.9947 10.9244 11.9927 10.927 11.9911 10.9285C11.9896 10.9301 11.9872 10.9319 11.9835 10.9334C11.9792 10.9353 11.975 10.9359 11.9731 10.9359V8.93587ZM13.9425 10.9031C13.9426 9.81598 13.0589 8.93587 11.9731 8.93587V10.9359C11.9707 10.9359 11.9659 10.9352 11.961 10.9331C11.9568 10.9313 11.954 10.9292 11.952 10.9272C11.9501 10.9253 11.9477 10.9223 11.9457 10.9176C11.9435 10.9122 11.9425 10.9066 11.9425 10.9031L13.9425 10.9031ZM12.9427 9.90309H12.9425V11.9031H12.9427V9.90309ZM13.9427 15.9999V10.9031H11.9427V15.9999H13.9427ZM13.9427 14.9999H12.9427V16.9999H13.9427V14.9999ZM12.9427 9.02832V15.9999H14.9427V9.02832H12.9427Z" fill="black" mask="url(#path-1-outside-1_1738_9536)"/>
</g>
<defs>
<filter id="filter0_d_1738_9536" x="-3" y="-2" width="38" height="38" filterUnits="userSpaceOnUse" color-interpolation-filters="sRGB">
<feFlood flood-opacity="0" result="BackgroundImageFix"/>
<feColorMatrix in="SourceAlpha" type="matrix" values="0 0 0 0 0 0 0 0 0 0 0 0 0 0 0 0 0 0 127 0" result="hardAlpha"/>
<feOffset dy="1"/>
<feGaussianBlur stdDeviation="1.5"/>
<feColorMatrix type="matrix" values="0 0 0 0 0 0 0 0 0 0 0 0 0 0 0 0 0 0 0.35 0"/>
<feBlend mode="normal" in2="BackgroundImageFix" result="effect1_dropShadow_1738_9536"/>
<feBlend mode="normal" in="SourceGraphic" in2="effect1_dropShadow_1738_9536" result="shape"/>
</filter>
</defs>
</svg>
